<svg width="512" height="512" xmlns="http://www.w3.org/2000/svg" xml:space="preserve" version="1.1" fill="#000000">
    <g id="Layer_1">
        <title>Layer 1</title>
        <g>
            <metadata>Created by potrace 1.15, written by Peter Selinger 2001-2017</metadata> -->
            <g transform="rotate(-42.0308, 298.5, 173)">
                <g>
                    <g>
                        <path fill='#D6D3CD'
                            d="m424.78933,192.45252l-36.68987,0l0,-7.56516c0,-1.99897 -1.88511,-3.61936 -4.21066,-3.61936l-14.90351,0l0,-5.37646l9.93686,0c6.97155,0 12.64321,-4.87518 12.64321,-10.86728c0,-5.99254 -5.67165,-10.86772 -12.64321,-10.86772l-23.13979,0c-6.97155,0 -12.64321,4.87518 -12.64321,10.86772l0,10.77351l-3.654,0l0,5.46979l-24.95455,0l0,-5.46979l-3.58161,0l0,-63.73097c0,-1.90871 1.8061,-3.46074 4.02562,-3.46074s4.02562,1.55247 4.02562,3.46074l0,3.10713c-1.31672,0.6117 -2.21085,1.8088 -2.21085,3.18556l0,10.24419c0,1.99897 1.88511,3.61936 4.21066,3.61936l20.89478,0c2.32555,0 4.21066,-1.62039 4.21066,-3.61936l0,-10.24419c0,-1.37676 -0.89413,-2.57343 -2.21085,-3.18556l0,-3.10713c0,-13.70712 -12.97353,-24.85878 -28.92002,-24.85878c-15.94598,0 -28.91951,11.15166 -28.91951,24.85878l0,63.73141l-3.5862,0l0,5.46979l-24.95302,0l0,-5.46979l-3.654,0l0,-10.77351c0,-5.99254 -5.67165,-10.86772 -12.64321,-10.86772l-23.1403,0c-6.97155,0 -12.64321,4.87518 -12.64321,10.86772c0,5.9921 5.67165,10.86728 12.64321,10.86728l9.93686,0l0,5.3769l-14.903,0c-2.32555,0 -4.21066,1.62039 -4.21066,3.61936l0,7.56516l-36.69089,0c-1.11639,0 -2.18791,0.38122 -2.97703,1.06039c-0.79014,0.6783 -1.23363,1.59935 -1.23363,2.55897c0,12.52842 9.26754,28.07064 24.79041,41.57576c14.99068,13.04197 32.35533,21.14346 45.31765,21.14346l120.78436,0c12.96232,0 30.32697,-8.10193 45.31765,-21.14346c15.52236,-13.506 24.7899,-29.04821 24.7899,-41.57663c0,-1.99854 -1.88511,-3.61936 -4.21066,-3.61936zm-73.22884,-27.42826c0,-2.00116 1.89429,-3.62944 4.22239,-3.62944l23.13979,0c2.3281,0 4.22239,1.62827 4.22239,3.62944c0,2.00073 -1.89429,3.629 -4.22239,3.629l-17.80203,0c-2.32555,0 -4.21066,1.62039 -4.21066,3.61936l0,3.52559l-5.34948,0l0,-10.77395zm-13.87582,-40.03994l-12.47396,0l0,-3.00591l12.47396,0l0,3.00591zm-43.20824,-12.91752c0,-9.71575 9.19515,-17.6205 20.49818,-17.6205c11.30303,0 20.4992,7.90431 20.4992,17.6205l0,2.67333l-8.05226,0l0,-2.67333c0,-5.89964 -5.58346,-10.69946 -12.44695,-10.69946c-6.86297,0 -12.44695,4.79938 -12.44695,10.69946l0,63.73141l-8.05175,0l0,-63.73141l0.00051,0zm-76.39806,56.58646c-2.3281,0 -4.22239,-1.62827 -4.22239,-3.629c0,-2.00116 1.89429,-3.62944 4.22239,-3.62944l23.1403,0c2.3281,0 4.22239,1.62827 4.22239,3.62944l0,10.77351l-5.34999,0l0,-3.52559c0,-1.99897 -1.88511,-3.61936 -4.21066,-3.61936l-17.80203,0l0,0.00044zm-0.75598,19.85346l162.35676,0l0,3.9458l-162.35676,0l0,-3.9458zm180.89694,44.05366c-13.26155,11.5377 -28.69827,18.99244 -39.32739,18.99244l-120.78436,0c-10.62912,0 -26.06533,-7.45518 -39.32688,-18.99244c-12.46224,-10.84187 -20.45434,-22.84053 -22.0601,-32.86914l243.55936,0c-1.60627,10.02861 -9.59889,22.02727 -22.06061,32.86914z" />
                    </g>
                </g>
            </g>

            <g fill="#4f46e5" transform="translate(0, 1211) scale(0.1, -0.1)">
                <path
                    d="m470.75895,11214.64651c-30.89274,-10.40964 -54.37122,-31.53508 -68.58188,-61.53934c-6.7964,-14.08363 -8.03211,-21.12544 -8.03211,-42.86322c0.30893,-22.04394 1.54464,-28.77959 9.26782,-44.08788c10.50353,-22.35011 29.65703,-41.63856 50.97302,-52.35436c17.91779,-8.87881 10.50353,-7.65415 350.6326,-63.98866c117.39241,-19.59461 215.94025,-36.12757 219.33845,-37.04607c4.01606,-0.9185 8.34104,-6.12332 11.43031,-14.3898c2.78035,-7.34798 34.29094,-86.9511 70.43545,-176.96387c36.14451,-90.01276 86.19074,-215.54076 111.21386,-278.61093c25.02312,-63.07017 69.50867,-174.8207 98.85677,-247.99434c29.3481,-73.17364 73.83365,-184.92418 98.85677,-247.99434c25.02312,-63.07017 69.50867,-174.8207 98.85677,-247.99434c29.3481,-73.17364 73.83365,-184.92418 98.85677,-247.99434c85.57289,-214.62227 150.75657,-377.80867 210.37956,-526.60527c32.43738,-81.74628 59.31406,-151.5521 59.62299,-155.22609c0.30893,-5.20482 -27.49454,-27.86109 -134.07449,-109.91354c-73.83365,-56.64068 -145.50481,-112.66904 -159.09761,-124.30334c-77.84971,-66.74416 -128.82273,-150.93977 -143.65124,-238.19704c-5.56069,-30.31042 -4.94284,-88.17577 0.92678,-115.11836c7.10533,-32.75975 28.73025,-72.56131 62.71226,-116.34303c33.05523,-42.25089 81.55683,-79.90929 130.36736,-101.03473c12.3571,-5.20482 23.16956,-10.40964 23.78741,-11.02197c0.92678,-0.61233 -6.48748,-3.67399 -16.37315,-6.73565c-101.94604,-31.53508 -171.14578,-138.69313 -155.39048,-240.64636c7.72319,-48.98654 25.64097,-85.11411 60.24084,-121.54785c109.3603,-115.42453 301.82207,-84.80794 369.7861,58.78384c31.51059,67.05032 27.18561,142.06096 -12.04817,206.04962c-14.21066,23.26861 -42.32305,52.66053 -64.56583,67.05032c-8.95889,6.12332 -16.06422,11.32814 -15.7553,11.94047c0.61785,0.30617 380.28963,-0.61233 844.29859,-1.837c464.00896,-1.53083 894.96268,-3.06166 957.67494,-3.06166c108.12459,-0.30617 113.99421,-0.61233 106.57995,-5.51099c-4.32498,-2.75549 -16.68208,-13.4713 -27.49454,-23.57477c-93.29608,-86.9511 -92.98715,-231.46139 0.61785,-319.02482c109.66923,-102.87173 289.7739,-72.25514 357.429,60.31467c22.5517,44.39405 29.96596,96.13608 20.38921,142.36712c-6.17855,29.69809 -27.18561,73.47981 -46.03018,96.13608c-13.28388,15.92062 -44.48555,43.16939 -49.11946,43.16939c-1.54464,0 -2.47142,1.22466 -2.47142,2.75549c0,1.837 39.54271,3.36782 99.78355,3.98016c114.30314,0.9185 114.61207,1.22466 145.50481,30.00425c23.78741,22.04394 33.98201,45.92488 34.29094,78.07229c0,21.73778 -1.23571,26.9426 -9.88568,44.70022c-12.04817,24.1871 -31.51059,42.86322 -55.91586,54.19136l-17.60886,8.26648l-344.45405,2.14316c-189.3725,1.53083 -737.71863,3.67399 -1218.7186,5.20482c-658.32429,1.837 -877.66275,3.36782 -888.47521,6.12332c-50.66409,12.85897 -77.84971,56.33452 -68.27296,108.07655c4.63391,25.71793 25.02312,65.82566 43.86769,86.03261c8.34104,9.18498 107.50674,87.8696 220.57416,174.8207l205.43672,158.28775l333.02374,26.0241c183.19395,14.08363 581.09244,45.00638 884.45915,68.58115c303.36671,23.57477 595.3031,46.53721 648.74754,50.51737c53.44444,4.28632 104.41746,9.79731 112.7585,12.24663c33.05523,9.18498 62.40334,38.5769 72.59794,71.94898c3.08927,11.02197 10.81246,60.62084 16.99101,110.21971c5.86962,49.59887 14.82852,123.38484 19.77135,163.79873c5.25177,40.41389 17.60886,142.36712 28.11239,226.56273c10.1946,84.19561 29.96596,242.78952 43.55876,352.09073c13.28388,109.60738 30.27489,245.23885 37.07129,301.57337c8.03211,64.601 12.04817,108.07655 10.81246,117.87385c-5.86962,50.2112 -50.66409,90.93126 -105.03532,95.21758c-10.50353,0.61233 -163.4226,4.89865 -340.12907,8.87881c-176.70647,4.28632 -376.27357,8.87881 -443.31082,10.7158c-67.03725,1.53083 -178.56004,4.28632 -247.75978,6.12332c-69.50867,1.53083 -181.95824,4.28632 -250.23119,6.12332c-68.58188,1.53083 -181.34038,4.59249 -251.15798,6.12332c-295.3346,7.34798 -885.38593,21.43161 -1024.09433,24.49327c-82.48362,1.837 -158.47976,3.98016 -168.98329,4.89865c-18.84457,1.53083 -18.84457,1.837 -24.09634,14.3898c-3.08927,7.04181 -25.9499,64.601 -50.97302,127.67116c-25.33205,63.07017 -66.72832,167.77889 -92.67822,232.68605c-25.9499,64.90716 -66.41939,166.86039 -90.2068,226.56273c-23.47848,59.70234 -46.33911,114.19986 -50.35517,121.24168c-8.95889,15.00213 -27.80347,32.45358 -43.86769,40.41389c-18.84457,9.49114 11.73924,3.98016 -409.01988,74.09214c-131.60307,21.73778 -245.59728,39.80156 -253.32047,39.4954c-7.41426,0 -21.00706,-2.44933 -29.65703,-5.51099zm1335.18423,-1045.5564l135.92806,-3.36782l0.92678,-193.49682l0.61785,-193.80299l-103.18175,0l-103.18175,0l-33.98201,85.11411c-18.84457,46.53721 -53.75337,134.40681 -77.84971,195.02765c-24.09634,60.62084 -44.48555,111.13821 -45.41233,112.66904c-1.85356,2.75549 58.07835,2.44933 226.13486,-2.14316zm434.043,-11.02197c65.49261,-1.837 128.20487,-3.06166 139.63519,-3.06166l21.00706,0l0,-188.292l0,-188.292l-189.99035,0l-189.99035,0l0,193.19066l0,192.88449l50.35517,-1.837c27.49454,-0.9185 103.49068,-3.06166 168.98329,-4.59249zm406.23953,-9.18498c73.21579,-1.837 151.37443,-3.98016 173.92613,-4.89865l40.77842,-1.837l0,-181.86252l0,-181.86252l-189.99035,0l-189.99035,0l0,186.76117l0,186.76117l16.37315,0c8.64997,0 75.99614,-1.22466 148.90301,-3.06166zm668.20997,-17.14529c2.78035,-0.9185 3.70713,-38.88306 3.70713,-177.27003l0,-176.04537l-189.99035,0l-189.99035,0l0,181.55635l0,181.25019l185.9743,-3.98016c102.5639,-2.44933 188.13679,-4.59249 190.29928,-5.51099zm301.20422,-7.34798c64.2569,-1.837 126.66023,-3.06166 138.39948,-3.06166l21.31599,0l0,-171.45288l0,-171.45288l-189.99035,0l-189.99035,0l0,176.04537l0,176.35153l51.8998,-1.837c28.42132,-0.9185 104.10853,-3.06166 168.36543,-4.59249zm471.11429,-11.02197c61.16763,-1.53083 87.11753,-3.06166 87.11753,-5.51099c0,-2.14316 -8.95889,-76.2353 -20.08028,-165.32956c-11.12139,-88.7881 -20.08028,-162.2679 -20.08028,-162.88024c0,-0.61233 -62.40334,-1.22466 -139.01733,-1.22466l-139.01733,0l0,170.53438l0,170.22822l71.98008,-1.837c39.23378,-1.22466 110.90494,-3.06166 159.09761,-3.98016zm-2143.33831,-586.00145l0,-174.8207l-18.84457,0.9185l-18.84457,0.9185l-24.09634,59.70234c-12.97495,32.75975 -43.55876,109.30121 -67.6551,169.92205c-24.40526,60.62084 -44.79447,112.0567 -45.72126,114.19986c-1.23571,2.75549 17.29993,3.67399 86.8086,3.67399l88.35324,0l0,-174.51454zm457.21255,0l0,-174.51454l-189.99035,0l-189.99035,0l0,174.51454l0,174.51454l189.99035,0l189.99035,0l0,-174.51454zm459.68397,0.9185l-0.92678,-173.90221l-189.06357,-0.9185l-189.3725,-0.61233l0,174.51454l0,174.51454l189.99035,0l189.99035,0l-0.61785,-173.59604zm457.83041,-0.9185l0,-174.51454l-189.99035,0l-189.99035,0l0,174.51454l0,174.51454l189.99035,0l189.99035,0l0,-174.51454zm457.21255,0l0,-174.51454l-189.99035,0l-189.99035,0l0,174.51454l0,174.51454l189.99035,0l189.99035,0l0,-174.51454zm347.54333,164.71723c-0.92678,-5.51099 -9.88568,-78.37846 -20.08028,-161.65557c-10.1946,-83.27711 -19.1535,-157.36925 -20.08028,-164.41106l-1.85356,-13.16513l-112.7585,0l-112.44957,0l0,174.51454l0,174.51454l134.38342,0l134.69235,0l-1.85356,-9.79731zm-2179.48281,-422.50888c0,-5.81715 -0.61785,-6.12332 -3.08927,-2.44933c-4.01606,5.81715 -4.01606,9.18498 0,9.18498c1.85356,0 3.08927,-3.06166 3.08927,-6.73565zm457.21255,-173.90221l0,-180.63786l-6.7964,-1.22466c-4.01606,-0.9185 -65.49261,-5.81715 -136.85484,-11.02197c-71.36223,-5.51099 -137.47269,-11.6343 -146.74052,-13.77746c-9.26782,-2.14316 -17.29993,-3.98016 -17.29993,-3.67399c-0.30893,0.30617 -16.68208,41.33239 -36.45343,90.93126l-35.83558,90.62509l0,104.70872l0,104.70872l189.99035,0l189.99035,0l0,-180.63786zm460.30183,18.36995c0,-127.365 -0.92678,-162.88024 -3.70713,-163.79873c-4.32498,-1.22466 -356.81115,-29.08576 -370.09503,-29.08576l-7.72319,0l0.92678,177.5762l0.61785,177.5762l189.99035,0l189.99035,0l0,-162.2679zm457.21255,17.14529l0,-145.12262l-17.60886,-1.837c-9.88568,-0.9185 -90.82466,-7.34798 -180.10467,-14.08363c-89.28002,-6.73565 -166.8208,-12.85897 -172.07256,-13.4713l-10.1946,-1.53083l0,160.73707l0,160.43091l189.99035,0l189.99035,0l0,-145.12262zm457.21255,18.06379l0,-127.05883l-6.7964,-1.22466c-4.01606,-0.9185 -82.17469,-7.04181 -173.92613,-14.08363c-91.75144,-7.04181 -174.23505,-13.4713 -182.88502,-14.3898l-16.37315,-1.837l0,142.97945l0,142.67329l189.99035,0l189.99035,0l0,-127.05883zm295.02567,117.26152c-0.92678,-5.51099 -6.48748,-50.82353 -12.3571,-100.4224c-6.17855,-49.59887 -12.04817,-97.97307 -13.28388,-107.15805l-2.16249,-16.83912l-80.32112,-6.73565c-44.17662,-3.67399 -86.19074,-6.73565 -93.29608,-6.73565l-13.28388,-0.30617l0,123.99717l0,123.99717l108.12459,0l108.43352,0l-1.85356,-9.79731zm-2298.72879,-1413.26159c83.10147,-38.5769 104.10853,-142.06096 41.7052,-207.27428c-62.09441,-64.90716 -172.07256,-50.2112 -214.08669,29.08576c-38.61593,72.86747 0.61785,162.2679 81.24791,185.53651c8.64997,2.44933 25.02312,3.67399 42.32305,3.06166c24.09634,-0.9185 31.51059,-2.44933 48.81053,-10.40964zm2136.85083,5.51099c48.5016,-16.22679 80.63005,-53.27286 89.89787,-104.09639c9.88568,-51.74203 -21.00706,-110.83204 -70.12652,-135.01914c-68.58188,-33.37208 -149.52086,-6.42948 -181.64931,60.62084c-9.26782,19.59461 -9.88568,22.96244 -9.88568,54.49752c0,31.53508 0.61785,34.90291 9.57675,53.88519c16.68208,34.90291 41.39627,56.64068 78.15863,69.19348c26.56776,8.87881 58.38728,9.18498 84.02825,0.9185z" />
                <path
                    d="m1691.02218,7798.75404c-48.81053,-17.14529 -62.09441,-85.72644 -22.86063,-118.48619c45.1034,-37.35223 114.61207,-10.7158 119.86383,45.92488c4.94284,52.35436 -46.03018,90.31893 -97.0032,72.56131z" />
                <path
                    d="m3841.46582,7798.44788c-16.06422,-7.04181 -22.5517,-11.94047 -32.7463,-25.41177c-25.64097,-33.67824 -12.97495,-82.97095 25.64097,-102.2594c48.5016,-23.88094 104.72639,8.87881 104.72639,60.92701c0,16.53296 -8.64997,38.27073 -19.46243,49.90503c-17.60886,18.98228 -54.37122,26.63643 -78.15863,16.83912z" />
            </g>
        </g>

    </g>

</svg>